ply
format ascii 1.0
comment Conversion from OFF file format
element vertex 161
property float32 x
property float32 y
property float32 z
property float32 nx
property float32 ny
property float32 nz
element face 318
property list uint8 int32 vertex_indices
end_header
-4.88758e-005 15.3563 -1.54648 0.568039 -0.816454 0.103609 
0.32575 15.4017 -1.28456 0.0895884 -0.984836 0.148565 
-3.60608e-005 15.4151 -0.824494 0.588701 -0.807209 0.0429473 
0.327749 15.4429 -0.561773 0.129535 -0.990941 0.0354593 
-2.08616e-005 14.6508 -1.10182 0.780699 0.623096 -0.0475514 
0.000112295 15.4329 6.36578e-005 0.618179 -0.564187 -0.54731 
0.6796 15.4878 -1.12071 0.101473 -0.905773 0.411434 
0.592947 15.5004 4.17233e-005 0.159326 -0.696622 -0.699523 
0.739789 15.536 -0.439916 0.300618 -0.953236 0.0311542 
1.14054 15.6752 -0.92638 0.297446 -0.84937 0.436001 
1.15764 15.706 -0.522411 0.453711 -0.890661 0.0294943 
1.07195 15.6685 6.67572e-005 0.402412 -0.807877 -0.430581 
1.52369 15.9251 -0.817446 0.48359 -0.723935 0.491996 
1.50856 15.9292 -0.339139 0.578843 -0.815009 0.0264649 
1.60528 16.0106 3.33786e-006 0.227629 -0.269194 -0.935799 
1.93825 16.3352 -0.744875 0.490482 -0.568544 0.660443 
1.91989 16.3402 2.26498e-005 0.531856 -0.477094 -0.69965 
1.8069 16.1954 -0.413677 0.715503 -0.698444 0.0152111 
2.29625 16.7618 -0.669838 0.489056 -0.562565 0.666593 
3.58411 15.5016 -0.976583 -0.408231 -0.586727 0.699356 
3.339 15.4627 -1.17901 -0.48915 -0.567063 0.6627 
3.17622 15.3816 -1.35127 -0.426304 -0.686141 0.58947 
2.99483 15.3501 -1.60427 -0.733934 -0.464847 0.495236 
3.33799 16.2644 -0.757241 -0.268354 -0.0433993 0.962342 
3.11266 15.793 -0.853677 -0.303344 -0.258177 0.917239 
2.81262 15.4815 -1.12461 -0.107351 -0.818421 0.564503 
2.72051 15.8645 -0.829282 -0.00246918 -0.306812 0.951767 
2.69888 15.6216 -0.970114 0.0114502 -0.638418 0.769605 
1.3297 15.3834 -1.33564 -4.44608e-005 -0.969435 0.245346 
2.81352 15.3079 -1.98726 -0.696957 -0.648682 0.305718 
2.31788 12.6311 -2.22996 -0.486387 0.846894 0.214939 
2.05295 12.6008 -2.22188 -0.0234819 0.816788 0.576461 
1.56478 12.598 -2.22136 0.0820397 0.580696 0.809976 
1.35228 12.6828 -2.23697 0.685039 0.703791 0.188146 
2.42763 12.7998 -2.25719 -0.933141 0.192799 0.303442 
3.18738 14.8952 -2.62649 -0.328308 -0.526475 0.784243 
3.17971 14.0827 -2.48285 -0.649011 0.709458 0.27469 
1.32319 12.9372 -2.28115 0.830811 0.170109 0.52992 
2.70049 14.8952 -2.6264 -0.402252 -0.262564 0.877071 
2.69997 14.0828 -2.48319 -0.159785 0.327249 0.931331 
2.69839 13.2409 -2.33464 -0.812142 0.442416 0.380385 
1.33093 13.4526 -2.37212 0.709853 0.161341 0.685623 
2.42767 13.1973 -2.32701 -0.204614 0.461018 0.863479 
2.69398 15.2035 -2.68075 -0.29315 -0.115461 0.949069 
1.25415 13.8791 -2.4473 0.645151 0.3951 0.65397 
1.07272 14.1445 -2.49407 0.520275 0.586791 0.620476 
0.836151 14.3382 -2.52822 0.463549 0.824195 0.325306 
0.470028 14.4649 -2.55057 0.138237 0.869928 0.473408 
8.64267e-006 15.2016 -2.68048 0.410724 -0.262643 0.873112 
-0.000108242 14.4678 -2.55095 0.649293 0.721789 0.239664 
4.44055e-005 15.2867 -2.14966 0.600356 -0.792442 0.107741 
-5.71012e-005 14.6897 -1.57356e-005 0.419097 0.811893 -0.406433 
4.8279 17.8488 -0.478902 -0.353423 -0.84644 0.398286 
4.82795 17.8535 -1.66893e-006 -0.437844 -0.147507 -0.886868 
4.8278 17.6425 -0.512778 -0.47265 0.00438484 0.881239 
4.82781 15.1477 -4.76837e-007 -0.928592 -0.000817692 -0.371102 
4.82791 15.6445 -0.162326 -0.943927 -0.189647 0.270251 
4.82788 15.5704 -0.582319 -0.375786 -0.528987 0.760893 
4.82796 15.2654 -0.526977 -0.944889 -0.18746 0.268408 
4.82783 15.181 -1.00666 -0.631273 -0.43447 0.642441 
4.8278 14.3684 -0.862724 -0.479143 0.518825 0.707985 
4.82904 14.3986 -0.375968 -0.736287 0.336535 0.587048 
4.82786 14.4254 -0.539882 -0.67836 0.731146 -0.0724785 
4.82755 13.6148 9.77516e-006 -0.673752 0.659375 -0.333592 
4.8277 13.61 -0.242357 -0.448414 0.488336 0.748634 
4.35505 13.6031 -0.292001 -0.154173 0.758619 0.633031 
3.90071 13.5851 2.38419e-007 -0.0451422 0.700355 -0.712366 
4.00898 13.5817 -0.397406 -0.343983 0.633704 0.692889 
3.53461 13.5382 -0.666731 -0.457596 0.734914 0.500507 
3.0511 13.5035 -7.86781e-006 -0.11508 0.875883 -0.468599 
2.42757 13.4012 -1.40667e-005 -0.459542 0.142126 -0.87671 
3.17772 13.479 -1.00648 -0.654306 0.622292 0.429693 
2.42801 13.3842 -0.793183 -0.551193 0.832785 -0.051525 
2.89352 13.3981 -1.44796 -0.700877 0.687631 0.189563 
2.42803 13.2952 -1.70251 -0.641858 0.760692 -0.0967736 
2.74145 13.3152 -1.91639 -0.631266 0.775524 -0.00817188 
2.7126 14.96 -2.25956 -0.704703 -0.666454 0.243379 
2.88429 15.0507 -1.74448 -0.640638 -0.643625 0.418723 
3.16083 15.1282 -1.30483 -0.631143 -0.497281 0.595289 
3.4575 15.1794 -1.0146 -0.45421 -0.602249 0.656498 
3.96849 15.5393 -0.758647 -0.286153 -0.571866 0.768821 
3.78024 15.2187 -0.791922 -0.411325 -0.416789 0.810616 
4.17053 15.2484 -0.62333 -0.21741 -0.574779 0.788899 
4.47198 15.5659 -0.608416 -0.140324 -0.567404 0.811395 
4.50568 15.2617 -0.547918 -0.0857807 -0.573561 0.814659 
1.33377 12.9041 8.7738e-005 0.746384 0.453326 -0.487244 
1.53597 12.8012 1.00136e-005 0.140783 0.806644 -0.574025 
2.17426 12.8029 -3.71933e-005 -0.062866 0.536906 -0.841297 
0.569713 14.6638 5.48363e-006 0.177828 0.683175 -0.708272 
2.42582 12.9812 0.000502348 -0.786867 0.220621 -0.57634 
0.890789 14.5188 -1.83582e-005 0.338859 0.492478 -0.801648 
1.32597 13.8535 8.58307e-006 0.881523 0.149231 -0.447936 
1.14662 14.2726 5.50747e-005 0.742399 0.501952 -0.44372 
2.32262 12.839 0.000627756 -0.543258 0.758823 -0.359247 
2.4061 16.8883 0.00014925 0.573832 -0.607529 -0.549204 
2.79025 17.2014 3.3617e-005 0.55526 -0.772455 -0.308219 
3.12586 17.4139 -1.69277e-005 0.24543 -0.454096 -0.856482 
3.54503 17.6148 5.81741e-005 0.326189 -0.893611 -0.308319 
4.04152 17.7657 -1.16825e-005 0.125202 -0.539818 -0.832419 
4.49484 17.8392 4.33922e-005 0.0983493 -0.967763 -0.231866 
2.98831 17.3258 -0.570773 0.292882 -0.602574 0.742378 
2.61968 17.0603 -0.61736 0.572572 -0.756861 0.315156 
3.67949 16.8715 -0.650607 -0.23209 -0.00771816 0.972664 
3.49436 17.5877 -0.524167 0.259798 -0.710455 0.654032 
4.05126 17.3014 -0.57525 -0.126197 -0.0377258 0.991288 
4.05348 17.7663 -0.492908 0.165943 -0.814868 0.555386 
4.45195 17.574 -0.525726 -0.0874521 0.00113425 0.996168 
4.48327 17.8293 -0.482309 0.0505898 -0.637715 0.76861 
4.03417 15.6243 -0.276554 -0.247588 -0.460804 0.852267 
4.52148 15.6422 -0.175287 -0.0744274 -0.57549 0.814415 
3.51117 15.5827 -0.512088 -0.366018 -0.59327 0.716981 
3.09681 15.5289 -0.813003 -0.472667 -0.599133 0.646239 
2.39474 12.8151 -1.55223 -0.773276 0.629377 -0.076998 
2.43053 13.0747 -0.484632 -0.98963 0.14341 -0.00815221 
2.39682 12.8994 -0.443877 -0.832837 0.553086 -0.0218966 
2.24611 12.6787 -1.78723 -0.209262 0.968152 -0.137447 
1.68194 12.7361 -1.2913 0.0786412 0.992227 -0.0964415 
2.24647 12.778 -0.856307 -0.253493 0.966042 -0.0500359 
1.5151 12.6393 -2.04058 0.250031 0.953166 -0.170175 
1.43865 12.7279 -1.58993 0.526086 0.844862 -0.0971688 
1.50442 12.8067 -0.21289 0.330696 0.943348 -0.0271177 
1.4334 12.8156 -0.617113 0.554616 0.83051 -0.0515112 
1.35762 12.7563 -2.02858 0.83618 0.537159 -0.110736 
1.32998 12.951 -0.99996 0.971459 0.236465 -0.0187602 
1.35097 12.916 -0.352184 0.855343 0.51806 -0.00161601 
1.32554 13.216 -0.345699 0.999076 0.0427841 0.0041009 
1.32673 13.7102 -1.83417 0.988676 0.148068 -0.0244106 
0.456683 14.6826 -0.386458 0.13079 0.99098 -0.0291982 
0.245373 14.6033 -1.61563 0.0152739 0.992933 -0.117692 
0.556125 14.6168 -1.28747 0.215629 0.972565 -0.0873059 
0.739417 14.4579 -2.05567 0.370487 0.91973 -0.129757 
0.774315 14.5856 -0.409889 0.426203 0.904108 -0.0306654 
0.846133 14.485 -1.40127 0.519316 0.850467 -0.0837623 
1.04676 14.384 -0.620129 0.69455 0.71868 -0.0331686 
1.08102 14.247 -1.82227 0.739267 0.667966 -0.0854801 
1.23061 14.1284 -0.270999 0.908449 0.417724 0.0150882 
1.2394 14.0795 -1.12689 0.894781 0.445301 -0.0327621 
2.73654 14.1611 -2.03941 -0.781121 0.621439 0.0605204 
2.93441 14.2541 -1.51171 -0.619269 0.756391 0.21066 
3.16142 14.3139 -1.17263 -0.531602 0.779898 0.330391 
3.53182 14.377 -0.814605 -0.504469 0.663077 0.553028 
3.86993 14.4139 -0.605279 -0.298124 0.809561 0.5057 
4.35272 14.4438 -0.43581 -0.15763 0.818863 0.551921 
4.72563 14.4528 -0.38959 0.0931025 0.751797 0.652788 
3.77714 13.8861 -0.565799 -0.501167 0.149042 0.852419 
4.20231 13.8976 -0.382328 -0.30497 0.167043 0.937598 
3.40317 13.7589 -0.817745 -0.660243 0.128843 0.739918 
4.57219 13.83 -0.293108 -0.12177 0.160764 0.979452 
4.42011 14.3597 -0.912352 -0.213187 0.80172 0.558387 
3.86148 14.3148 -1.16685 -0.350006 0.867028 0.354623 
3.4749 14.2469 -1.55132 -0.64184 0.668365 0.375939 
3.2436 14.1632 -2.02656 -0.674964 0.733135 0.0832867 
4.31931 15.1669 -1.08607 -0.240245 -0.448318 0.860984 
4.04431 15.1463 -1.20265 -0.309426 -0.693932 0.650164 
3.65031 15.0956 -1.49041 -0.563926 -0.484137 0.669028 
3.35097 15.0234 -1.89974 -0.632048 -0.642282 0.433577 
3.20874 14.9483 -2.32546 -0.695951 -0.675415 0.243859 
4.4959 14.8962 -0.985849 -0.16162 0.187145 0.968946 
4.0558 14.4951 -1.07557 -0.480231 0.130827 0.867331 
3.86451 14.8291 -1.26058 -0.589646 0.14956 0.793693 
3.71604 14.5406 -1.33079 -0.651038 0.124496 0.748766 
3 1 0 2 
3 10 9 8 
3 7 3 5 
3 8 7 11 
3 11 13 10 
3 14 16 17 
3 17 15 12 
3 6 8 9 
3 1 2 3 
3 3 7 8 
3 13 14 17 
3 12 13 17 
3 1 28 0 
3 9 12 26 
3 26 24 27 
3 25 28 6 
3 27 9 26 
3 1 6 28 
3 9 27 6 
3 34 31 42 
3 31 34 30 
3 47 49 48 
3 55 61 62 
3 55 56 53 
3 63 61 55 
3 54 52 53 
3 63 65 64 
3 65 63 66 
3 72 74 73 
3 68 66 69 
3 73 74 75 
3 68 67 66 
3 69 70 72 
3 69 71 68 
3 43 29 76 
3 78 22 21 
3 19 79 20 
3 19 80 81 
3 58 84 57 
3 83 57 84 
3 81 80 82 
3 79 19 81 
3 77 29 22 
3 29 77 76 
3 77 22 78 
3 96 98 97 
3 7 90 11 
3 5 88 7 
3 93 89 87 
3 98 53 99 
3 89 70 87 
3 101 100 18 
3 106 105 107 
3 12 15 26 
3 104 105 106 
3 110 23 102 
3 104 106 108 
3 111 25 24 
3 106 54 109 
3 34 42 74 
3 30 34 112 
3 116 115 117 
3 114 117 112 
3 113 114 112 
3 89 114 113 
3 89 93 114 
3 117 120 116 
3 86 117 87 
3 33 32 118 
3 118 122 33 
3 122 118 119 
3 119 121 123 
3 121 119 116 
3 123 121 124 
3 124 121 120 
3 124 120 85 
3 86 85 120 
3 125 123 124 
3 37 123 41 
3 124 85 125 
3 123 37 122 
3 33 122 37 
3 128 47 129 
3 130 129 47 
3 131 88 127 
3 131 90 88 
3 129 131 127 
3 130 132 129 
3 130 47 46 
3 90 131 133 
3 133 92 90 
3 133 134 136 
3 46 45 134 
3 135 91 92 
3 136 91 135 
3 136 44 126 
3 44 41 126 
3 128 49 47 
3 128 4 49 
3 127 51 4 
3 88 51 127 
3 22 28 21 
3 28 50 0 
3 48 50 43 
3 140 141 144 
3 73 137 138 
3 138 139 71 
3 138 71 73 
3 145 142 147 
3 68 71 146 
3 144 68 146 
3 144 145 67 
3 67 68 144 
3 65 67 145 
3 40 137 75 
3 147 64 65 
3 62 61 143 
3 140 149 141 
3 138 151 150 
3 150 139 138 
3 36 137 39 
3 77 78 155 
3 155 156 77 
3 59 60 157 
3 59 157 152 
3 158 153 152 
3 158 148 149 
3 159 154 153 
3 153 158 159 
3 160 158 149 
3 160 159 158 
3 159 160 154 
3 150 154 160 
3 150 155 154 
3 150 151 155 
3 156 151 36 
3 36 35 156 
3 109 83 108 
3 108 83 80 
3 80 110 108 
3 98 105 97 
3 105 103 97 
3 96 97 103 
3 100 96 103 
3 100 95 96 
3 18 16 94 
3 140 144 146 
3 115 112 117 
3 31 30 115 
3 25 6 27 
3 67 65 66 
3 157 60 148 
3 14 13 11 
3 116 120 121 
3 33 37 32 
3 23 100 102 
3 94 101 18 
3 119 123 122 
3 54 53 56 
3 149 150 160 
3 56 109 54 
3 120 117 86 
3 8 11 10 
3 7 88 90 
3 87 117 93 
3 114 93 117 
3 26 23 24 
3 100 101 95 
3 91 125 85 
3 98 99 105 
3 107 105 99 
3 0 4 2 
3 155 151 156 
3 73 71 72 
3 64 147 61 
3 142 62 143 
3 149 139 150 
3 25 111 20 
3 88 5 51 
3 126 41 123 
3 147 65 145 
3 30 112 115 
3 56 57 109 
3 83 109 57 
3 109 108 106 
3 28 25 21 
3 21 20 78 
3 79 78 20 
3 137 73 75 
3 25 27 24 
3 80 83 82 
3 84 82 83 
3 2 5 3 
3 123 125 91 
3 61 63 64 
3 35 36 39 
3 50 29 43 
3 44 136 134 
3 40 75 42 
3 74 42 75 
3 100 103 102 
3 71 69 72 
3 156 76 77 
3 154 155 78 
3 76 38 43 
3 94 95 101 
3 36 151 137 
3 139 149 140 
3 110 102 108 
3 78 79 154 
3 142 141 148 
3 149 148 141 
3 38 76 35 
3 156 35 76 
3 20 111 19 
3 110 19 111 
3 131 132 133 
3 70 69 14 
3 53 52 99 
3 107 99 52 
3 39 137 40 
3 138 137 151 
3 81 82 153 
3 152 153 82 
3 102 103 104 
3 105 104 103 
3 80 19 110 
3 2 4 5 
3 51 5 4 
3 82 84 152 
3 91 126 123 
3 108 102 104 
3 46 47 43 
3 48 43 47 
3 15 18 26 
3 35 39 38 
3 49 50 48 
3 142 145 141 
3 144 141 145 
3 11 90 14 
3 127 4 129 
3 128 129 4 
3 140 146 139 
3 71 139 146 
3 50 28 29 
3 81 153 79 
3 154 79 153 
3 60 62 148 
3 142 148 62 
3 0 50 4 
3 49 4 50 
3 52 54 107 
3 106 107 54 
3 58 59 84 
3 152 84 59 
3 55 58 56 
3 57 56 58 
3 119 118 116 
3 129 132 131 
3 90 92 14 
3 91 136 126 
3 46 43 45 
3 60 59 62 
3 95 94 96 
3 116 118 115 
3 89 113 70 
3 55 62 58 
3 59 58 62 
3 37 41 32 
3 16 14 53 
3 91 85 70 
3 132 134 133 
3 26 18 23 
3 100 23 18 
3 31 32 42 
3 61 147 143 
3 142 143 147 
3 32 41 42 
3 112 34 113 
3 63 55 66 
3 53 66 55 
3 40 42 39 
3 98 96 53 
3 53 14 66 
3 69 66 14 
3 70 14 91 
3 92 91 14 
3 38 39 43 
3 53 96 16 
3 94 16 96 
3 39 42 44 
3 41 44 42 
3 39 44 43 
3 45 43 44 
3 32 31 118 
3 115 118 31 
3 44 134 45 
3 130 46 132 
3 134 132 46 
3 74 72 34 
3 29 28 22 
3 133 136 92 
3 135 92 136 
3 21 25 20 
3 85 86 70 
3 87 70 86 
3 72 70 34 
3 113 34 70 
3 15 17 18 
3 16 18 17 
3 10 13 9 
3 12 9 13 
3 24 23 111 
3 110 111 23 
3 157 148 152 
3 158 152 148 
3 3 8 1 
3 6 1 8 
